<?xml version="1.0" standalone="no"?><!DOCTYPE svg PUBLIC "-//W3C//DTD SVG 1.1//EN" "http://www.w3.org/Graphics/SVG/1.1/DTD/svg11.dtd"><svg t="1534401558266" class="icon" style="" viewBox="0 0 1024 1024" version="1.1" xmlns="http://www.w3.org/2000/svg" p-id="1986" xmlns:xlink="http://www.w3.org/1999/xlink" width="200" height="200"><defs><style type="text/css"></style></defs><path d="M842.903632 506.87573h-621.123664c-21.622868 0-50.427477-6.288877-41.227083-26.475396l77.019334-169.023277c9.161574-20.225339 34.355903-36.723937 55.93995-36.723937h139.830465V120.42035c0-22.321632 17.663204-40.567139 39.247252-40.567139h78.494503c21.622868 0 39.286072 18.245508 39.286071 40.567139v154.27159h135.016757c21.584047 0 46.778376 16.498597 55.97877 36.685117l76.941694 169.023277c9.200394 20.186519-13.781181 26.475396-35.404049 26.475396z m-582.303435 77.601638h582.303435c18.63371 78.766245 18.63371 107.726135 32.531352 213.511259a88.12192 88.12192 0 0 1-52.407309 97.050572h-94.022595c12.655395-17.585564 30.008037-124.962317 37.810903-176.981424-26.126014 102.601865-65.295625 163.627265-81.677762 176.981424h-93.517931c12.694215-17.585564 32.25961-129.038441 37.810903-176.981424-22.360452 85.210403-59.472591 159.745242-81.677762 176.981424H454.623702c12.655395-17.585564 30.008037-124.962317 37.810903-176.981424-17.857305 79.930851-60.637198 159.240579-81.677762 176.981424H336.804307c12.694215-17.585564 30.008037-124.962317 37.849723-176.981424-16.265676 82.648267-61.957085 159.240579-81.677762 176.981424h-102.097202c-49.883994-26.980059-73.603154-95.381303-3.29972-157.920691 50.194556-44.604443 76.32057-90.101751 73.020851-152.64114z" p-id="1987" fill="#ffffff"></path></svg>